<svg id="Layer_1_1_" enable-background="new 0 0 256 256" height="512" viewBox="0 0 256 256" width="512" xmlns="http://www.w3.org/2000/svg"><path d="m4.494 173.669c.502 2.509 2.723 4.331 5.283 4.331 1.643 0 3.175-.735 4.203-2.017 1.028-1.281 1.413-2.936 1.057-4.54-.532-2.394.172-4.871 1.883-6.626l11.691-11.997 34.116-3.696c2.716-.376 5.471-.317 8.189.175 7.212 1.304 20.515 3.4 28.585 2.794 7.809-.587 15.991-2.197 20.879-3.159 1.837-.362 3.423-.674 3.9-.71 1.562-.117 11.128-.127 14.791-.122.736.069 6.037.582 8.728 1.259 2.309.581 6.69 1.205 8.985 1.511l3.964 23.782c.321 1.938 1.98 3.344 3.945 3.344h22.086c2.327 0 4.22-1.893 4.22-4.22 0-1.993-1.359-3.687-3.305-4.119l-14.774-3.283-.706-14.065 10.255 1.367c.469.063.945.094 1.421.094.154 0 .309-.003.463-.01 1.962-.085 3.899-.932 5.454-2.383l10.894-10.162c1.188-.478 2.352-1.162 3.452-2.005l11.068 1.054c.397.635.833 1.24 1.352 1.776 1.822 1.883 5.389 5.103 8.802 5.508 2.058.238 5.05-.6 6.609-1.107l2.596 1.744c.341.229.729.34 1.114.34.567 0 1.128-.241 1.521-.7l3.433-4.011c1.636-.448 5.933-1.793 8.817-4.226 3.003-2.531 5.012-7.212 4.776-11.13-.327-5.488-2.97-10.956-6.84-14.339 1.9-3.96 1.066-8.765-2.246-11.614-4.094-3.521-10.291-3.055-13.815 1.039-1.958 2.278-2.88 5.067-2.642 7.664-1.115.403-2.169.903-3.113 1.522-3.307 2.168-5.916 4.877-7.523 6.768-1.29 1.518-2.568 3.122-3.429 4.893l-3.387-.242c-.139-2.995-1.134-5.261-3.016-6.731-4.066-3.173-13.451-3.42-16.23-3.42-6.129 0-30.361 7.531-33.089 8.385-3.945 1.201-10.053 2.933-11.276 3.025-1.071.074-4.533-.622-6.956-1.209-1.323-1.285-5.574-5.056-11.942-7.236-6.826-2.337-13.029 2.01-17.135 4.887-.89.624-1.659 1.162-2.313 1.553-2.032 1.214-10.966 3.474-17.489 5.124-5.229 1.322-9.744 2.464-11.785 3.244-1.111.424-2.359.503-3.608.23-1.917-.42-5.298-.837-10.541-.444-8.059.605-32.292 6.454-36.543 7.981-.053.019-.105.041-.156.064l-9.411 4.308-7.151-1.43c-1.12-.226-2.288.043-3.2.733s-1.485 1.741-1.573 2.882l-.8 10.406-2.667 6c-.95 2.137-1.209 4.479-.75 6.771zm229.88-67.51c2.084-2.422 5.751-2.698 8.174-.615 1.789 1.539 2.289 4.085 1.445 6.333-3.339-1.584-7.481-2.125-11.341-1.613.038-1.367.629-2.835 1.722-4.105zm-6.595 9.922c4.388-2.875 11.946-2.692 16.173.392 3.536 2.58 6.008 7.38 6.298 12.23.155 2.603-1.251 5.93-3.219 7.693-4.337-4.106-15.445-14.352-22.144-18.109.96-.829 1.934-1.578 2.892-2.206zm-10.16 11.992c.253-2.022 1.863-4.063 3.491-5.979.256-.302.518-.599.785-.892 4.324 1.906 14.572 10.768 21.602 17.361-2.253 1.011-4.381 1.522-4.413 1.529-.415.097-.789.324-1.065.647l-2.685 3.137-1.944-1.306c-.334-.225-.724-.34-1.115-.34-.235 0-.471.042-.697.125-1.612.6-4.457 1.374-5.73 1.225-1.524-.181-4.035-1.875-6.397-4.318-1.022-1.056-1.666-2.407-1.966-4.129h-.001c-.382-2.182-.161-4.683.135-7.06zm-30.54 20.384c-.859.802-1.889 1.267-2.898 1.312-.396.015-.794-.001-1.183-.053l-10.987-1.465-.238-4.734c6.655-.472 16.671-1.159 22.119-1.415zm9.921-10.457c-5.017 0-31.042 1.923-32.147 2.005l.295 3.989c.051-.004 1.037-.077 2.636-.193l1.144 22.776c.089 1.792 1.375 3.315 3.127 3.705l14.774 3.284c.1.022.172.112.172.214 0 .121-.099.22-.22.22h-22.086l-6.059-36.353c-.226-1.35.545-2.663 1.831-3.122 6.812-2.428 23.479-8.322 31.107-10.61 7.279-2.183 13.298-1.239 15.555-.732.258 1.425.134 3.077-.101 4.488-.838 5.02-5.992 10.329-10.028 10.329zm10.766-2.46c1.605-2.154 2.781-4.655 3.207-7.211.01-.063.013-.119.023-.181l2.565.183c-.284 2.463-.446 5.041-.019 7.49.017.096.048.181.067.275zm-47.675-9.333c7.291-2.283 27.238-8.207 31.909-8.207 2.758 0 5.374.201 7.608.558-2.697.101-5.814.516-9.183 1.527-7.716 2.315-24.46 8.235-31.302 10.674-3.113 1.11-4.978 4.285-4.433 7.547l1.406 8.436c-.666-.093-1.405-.199-2.169-.315l.957-18.691c2.308-.653 4.448-1.298 5.207-1.529zm-12.155 3.191c.578-.043 1.636-.268 2.889-.577l-.867 16.925c-.437-.088-.84-.176-1.182-.263-2.119-.534-5.48-.954-7.569-1.182l.389-15.784c2.093.458 4.905.987 6.34.881zm-66.494 6.112c1.823-.696 6.445-1.865 11.34-3.103 9.383-2.374 16.207-4.162 18.56-5.568.778-.465 1.642-1.07 2.556-1.71 3.649-2.556 8.647-6.054 13.544-4.379 5.206 1.782 8.862 4.845 10.196 6.082l-.426 17.271c-3.743 0-11.647.016-13.231.135-.685.051-1.903.287-4.373.773-4.801.945-12.835 2.526-20.406 3.096-6.406.48-16.535-.884-23.779-2.086l-.049-10.145c.057.012.125.023.179.035 2.01.441 4.047.301 5.889-.401zm-73.421 28.617 2.807-6.315c.093-.209.149-.432.167-.659l.827-10.75 7.787 1.557c.415.084.842.033 1.225-.143l9.92-4.542c4.243-1.49 27.859-7.163 35.414-7.73 2.065-.155 3.774-.171 5.204-.114l.048 9.902c-3.068-.533-6.174-.596-9.181-.178l-34.772 3.766c-.462.05-.893.259-1.217.592l-12.193 12.512c-2.656 2.725-3.749 6.57-2.923 10.286.125.565-.117.975-.272 1.169s-.503.52-1.083.52c-.659 0-1.231-.469-1.36-1.116l-.879-4.396c-.298-1.476-.131-2.984.481-4.361z"/></svg>