<svg id="Layer_1_1_" enable-background="new 0 0 256 256" height="512" viewBox="0 0 256 256" width="512" xmlns="http://www.w3.org/2000/svg"><path d="m27.861 124.067c.917-2.141.446-4.588-1.201-6.235-1.98-1.98-5.162-2.205-7.402-.525l-4.472 3.354c-.982.737-1.709 1.793-2.047 2.975l-3.52 12.321c-.145.505-.219 1.028-.219 1.556v8.929c0 2.121-.377 4.203-1.122 6.188l-3.19 8.506c-1.194 3.186-.831 6.81.972 9.693 2.023 3.238 5.511 5.171 9.329 5.171h38.011c.034 0 .068-.001.103-.003l24.512-1.257c9.125-.468 18.211-2.058 27.004-4.725 8.54-2.589 14.713-4.015 17.381-4.015 4.694 0 19.63 2.666 28.325 4.295l-7.639 3.241c-1.632.692-2.686 2.285-2.686 4.058 0 2.43 1.977 4.406 4.407 4.406h43.93c2.745 0 5.454-.72 7.836-2.081 1.395-.797 2.529-1.928 3.355-3.25l14.426.33c.016.001.031.001.046.001.039 0 .079-.001.118-.004l4.213-.248c8.71-.512 17.02-4.072 23.397-10.025 3.962-3.698 6.794-8.42 8.19-13.656 1.416-5.308 1.289-10.882-.371-16.141l-3.727-11.381c.299-.492.518-1.042.636-1.631l1.504-7.521c.042-.211.05-.428.023-.641l-2-16c-.037-.294-.138-.576-.297-.825l-2.778-4.366c-2.957-4.646-7.123-8.403-12.048-10.866l-3.86-1.931v-1.764c0-1.009-.751-1.859-1.752-1.984l-7.906-.988-8.908-1.979c-.078-.018-.156-.03-.235-.038l-7.461-.746c-1.943-.195-3.876-.015-5.749.533l-4.401 1.288-.506-.529c-4.514-4.719-9.586-8.9-15.077-12.431-4.231-2.72-9.579-3.315-14.307-1.599-3.27 1.189-6.019 3.349-7.948 6.243l-.215.321c-2.181 3.271-3.07 7.153-2.582 10.999l-13.294 5.173c-5.248 2.042-9.437 5.981-11.796 11.094-.153.331-.292.659-.418.984-1.012 2.602-2.928 4.567-5.315 5.512-5.269-5.224-12.751-8.418-20.71-8.934.186-6.021-3.998-11.484-10.098-12.683-6.781-1.328-13.384 3.102-14.716 9.884-.716 3.644.269 7.412 2.567 10.27-.368.351-.729.709-1.077 1.083-4.721 5.069-7.129 11.765-6.782 18.851 1.048 21.359 15.214 23.1 29.75 22.914l4.662 1.727-.276.105-53.366 10.299c-2.118.408-4.281.527-6.434.346l-7.92-.66c-3.753-2.858-6.226-7.144-6.813-11.838l-1.81-14.479c-.036-.293.006-.591.122-.861zm166.327 52.379c-1.778 1.017-3.802 1.554-5.851 1.554h-43.93c-.224 0-.407-.183-.407-.406 0-.164.097-.311.248-.375l31.533-13.378c.739-.314 1.219-1.038 1.219-1.841 0-8.803-2.013-17.649-5.822-25.585l-4.845-10.094.367-.031c2.478-.213 4.919-.744 7.254-1.578l9.39-3.354 6.361 37.128c.269 1.537.917 3 1.875 4.23l4.245 5.458c.758.975 1.175 2.191 1.175 3.426 0 1.999-1.077 3.855-2.812 4.846zm-63.312-46.761c-.058-.405-.527-2.007-1.177-4.113l6.582.724 9.024 8.755c.374.363.747.702 1.12 1.03l-12.595.541c-1.724.066-3.439.205-5.143.412.08-.083.161-.166.229-.253.573-.739 1.921-2.701 2.066-4.959.042-.646.008-1.344-.106-2.137zm20.442 5.128c-1.088-.721-2.144-1.583-3.227-2.634l-4.237-4.11c.301.014.601.03.903.03.551 0 1.105-.023 1.661-.07l15.653-1.342 5.5 11.458c.381.793.736 1.598 1.078 2.409l-9.859-2.272c-2.183-.503-4.906-1.767-7.472-3.469zm94.736 17.222c-1.202 4.511-3.642 8.578-7.055 11.764-5.698 5.317-13.121 8.499-20.903 8.957l-4.132.243-13.038-.298c.042-.364.074-.73.074-1.101 0-2.12-.717-4.208-2.018-5.881l-4.246-5.459c-.558-.717-.935-1.568-1.09-2.457l-2.252-13.145c5.444 7.975 11.96 15.141 19.404 21.295l2.549-3.082c-7.434-6.146-13.917-13.333-19.269-21.361l-4.338-6.506-2.572-15.012 11.505-4.109c.174-.063.339-.148.49-.256l13.05-9.322c8.106 9.387 14.664 19.933 19.48 31.371l.463 1.1 3.687-1.553-.463-1.1c-2.863-6.8-6.339-13.284-10.352-19.424l9.519-.83 1.964 8.149c.521 2.344 2.561 3.98 4.961 3.98.311 0 .617-.031.915-.086l3.352 10.236c1.426 4.515 1.534 9.316.315 13.887zm-21.463-49.358 1.834 3.772c.665 1.599 1.989 2.807 3.645 3.32.569.178 1.152.265 1.732.265.439 0 .872-.065 1.298-.164l.498 2.068-11.151.972c-2.182-3.078-4.503-6.062-6.971-8.937l3.9-2.786zm14.943-5.97 2.537 3.987 1.904 15.231-1.441 7.204c-.101.504-.547.87-1.062.87-.511 0-.946-.349-1.065-.883l-3.78-15.684c.819-1.23 1.166-2.745.891-4.257l-1.551-8.533-3.936.715 1.551 8.534c.13.713-.176 1.433-.779 1.835-.458.306-1.023.385-1.547.224-.309-.096-.868-.361-1.147-1.061-.018-.044-.037-.088-.058-.132l-2.102-4.323-.962-8.656c-.044-.399-.208-.776-.469-1.081l-4.064-4.741 2.392-.798 4.226 2.113c4.278 2.139 7.895 5.402 10.462 9.436zm-16.986-14.998-4.181 1.394c-.632.211-1.117.722-1.295 1.363s-.024 1.33.409 1.836l5.599 6.532.603 5.424-4.134-1.181c-.583-.166-1.214-.058-1.712.295l-20.773 14.838-24.456 8.734c-2.012.72-4.116 1.177-6.251 1.36l-20.281 1.738c-6.049.524-11.89-2.567-14.868-7.862-1.833-3.26-1.877-7.177-.117-10.477 1.924-3.606 5.666-5.772 9.625-5.772.826 0 1.662.094 2.493.29l7.333 1.726c.119.027.241.045.363.051l21 1c.125.002.252-.001.378-.019l21-3c.186-.026.367-.079.538-.155l20-9c.718-.323 1.179-1.037 1.179-1.824v-5.172l2.723-2.723zm-66.242 11.253c1.723-.407 4.127-.85 5.791-.718 2.104.162 9.624 2.29 14.67 3.828l1.032 2.079-5.893.842-14.706-.7zm48.196-2.331-6.358-6.647c1.136.155 2.553.438 4.307.939 3.267.933 5.564 2.343 7.018 3.473zm-8.389-11.995c1.377-.403 2.8-.534 4.227-.392l7.343.734 5.327 1.184-1.424 1.424c-.375.375-.586.884-.586 1.414v1.555c-1.771-1.231-4.224-2.556-7.451-3.478-4.784-1.367-7.688-1.374-9.281-1.145l-.565-.591zm-40.25-8.325.215-.321c1.454-2.182 3.524-3.808 5.987-4.703 3.562-1.294 7.591-.845 10.777 1.205 5.225 3.357 10.052 7.338 14.349 11.83l13.441 14.052-8.195 3.688-10.468 1.495-6.177-12.445-3.583 1.779 2.127 4.285c-4.079-1.189-9.745-2.75-11.932-2.919-2.16-.164-4.885.327-6.759.757l-1.627-9.705c-.583-3.144.073-6.34 1.845-8.998zm-17.753 17.68 12.492-4.86 2.509 14.967-1.832-.087-7.154-1.684c-4.035-.947-8.155-.147-11.474 1.985l-2.48-4.16c1.975-2.766 4.71-4.905 7.939-6.161zm-10.148 10.266 1.606 2.693c-.766.863-1.445 1.819-2.005 2.871-2.406 4.511-2.346 9.864.16 14.32.709 1.26 1.552 2.414 2.495 3.462l-1.825-.201c-1.443-4.54-3.037-9.411-3.361-10.351-.725-2.108-1.815-4.157-3.192-6.055 2.692-1.412 4.845-3.764 6.122-6.739zm-50.431-7.365c.907-4.618 5.401-7.644 10.021-6.729 4.178.821 7.036 4.579 6.869 8.719-5.655.284-10.872 2.024-15.15 4.989-1.559-1.947-2.227-4.505-1.74-6.979zm-5.222 29.236c-.294-5.999 1.735-11.656 5.714-15.93 4.096-4.398 10.002-7 16.632-7.324 7.765-.38 15.316 2.163 20.637 6.86-2.743 2.226-7.468 5.32-11.033 4.806-4.1-.585-7.198-.102-9.21 1.436-1.341 1.024-2.166 2.494-2.385 4.249-.388 3.096 2.149 5.15 4.239 6.297l-13.25 17.308c-6.417-2.037-10.81-6.821-11.344-17.702zm26.1 19.104c-.01 0-.02 0-.03 0-3.692.061-7.216.007-10.418-.45l13.66-17.844c.394-.515.512-1.188.321-1.807-.191-.618-.671-1.107-1.287-1.31-1.769-.584-4.154-2.046-4.022-3.102.087-.695.355-1.192.844-1.566.635-.484 2.287-1.217 6.218-.653 5.519.778 11.536-3.511 14.369-5.867 1.406 1.772 2.496 3.72 3.185 5.721 1.002 2.91 5.391 16.598 5.672 17.926.07.504.094.925.07 1.284-.049.77-.502 1.799-1.188 2.703-1.384 1.031-9.083 1.714-11.997 1.973-3.13.277-3.855.36-4.425.613-1.463.647-2.358 2.101-2.279 3.699l.088 1.799-8.087-2.995c-.222-.082-.457-.124-.694-.124zm12.696 1.295c.614-.087 1.898-.2 3.054-.303.499-.044.981-.088 1.452-.133-.531.186-1.063.368-1.59.569l-2.856 1.088zm-7.726 8.437c.114-.022.225-.054.333-.095l11.734-4.47c5.946-2.266 12.183-3.538 18.548-3.782l17.968-.771c1.706.912 3.786 1.839 5.93 2.334l12.409 2.86c1.63 5.054 2.555 10.344 2.684 15.642l-16.04 6.805c-4.22-.826-28.32-5.487-34.945-5.487-2.831 0-8.193 1.15-15.94 3.414l-4.184-16.16zm-70.541 9.664c.293.209.637.335.996.365l8.485.707c2.515.209 5.046.074 7.523-.404l48.098-9.282 4.28 16.529c-8.098 2.353-16.436 3.773-24.811 4.204l-24.46 1.253h-37.96c-2.43 0-4.649-1.23-5.937-3.29-1.147-1.836-1.378-4.143-.619-6.17l3.19-8.506c.914-2.437 1.377-4.991 1.377-7.593v-8.929c0-.154.021-.308.064-.456l3.521-12.322c.099-.347.313-.657.602-.874l4.472-3.354c.66-.491 1.593-.426 2.174.154.484.483.622 1.202.353 1.831l-1.631 3.809c-.396.922-.539 1.937-.415 2.934l1.81 14.479c.746 5.977 3.986 11.414 8.888 14.915z"/></svg>