<svg id="Layer_1_1_" enable-background="new 0 0 256 256" height="512" viewBox="0 0 256 256" width="512" xmlns="http://www.w3.org/2000/svg"><path d="m240.888 106.737c2.583-.984 4.139-3.665 3.701-6.398l-.284-1.771c-.866-5.4-2.839-10.448-5.865-15.002l-4.518-6.801c-1.336-2.012-2.962-3.622-4.833-4.788-4.771-2.974-10.246-4.863-15.833-5.464l-5.682-.612-.879-2.361c-.352-.946-1.352-1.481-2.334-1.249l-9.821 2.32c-.601.142-1.102.553-1.359 1.114l-2.945 6.439c-.221.482-.241 1.033-.056 1.53l.959 2.576-14.357 2.039-15.584-9.478c-5.862-3.564-12.06-6.666-18.421-9.221l-4.188-1.682c-6.149-2.468-13.038-2.117-18.903.963l-.481.253c-3.38 1.773-6.275 4.398-8.372 7.589-3.417 5.199-4.539 11.649-3.078 17.698.825 3.416 1.855 6.766 3.077 10.042l-6.165 2.193c-5.08 1.808-9.6 4.944-13.07 9.071-5.082 6.043-7.634 13.978-7.042 21.843l-24.693 5.998c-9.072-2.645-19.442-1.543-28.576 2.95-1.434-3.001-3.788-5.441-6.803-6.972-3.618-1.838-7.733-2.153-11.589-.894-7.96 2.601-12.32 11.192-9.719 19.152 1.448 4.432 4.894 7.947 9.226 9.537-2.819 8.618-1.872 18.168 3.391 26.583 6.981 11.163 14.552 15.074 22.322 15.074 7.791 0 15.782-3.932 23.58-8.43l10.781-1.687c1.375-.215 2.542-1.101 3.122-2.37.598-1.308.493-2.826-.28-4.063l-1.4-2.239c-.063-.102-.055-.205-.021-.282.451-.386 2.03-1.462 3.433-2.418 8.816-6.01 13.371-9.582 13.801-12.436.167-1.112.432-3.961-.729-6.387-.334-.698-.781-1.412-1.368-2.182-.265-.347-1.489-1.555-3.177-3.171l3.248-.643c4.266 3.31 9.452 5.044 14.694 5.044 3.26 0 6.535-.672 9.614-2.025l-4.139 4.105c-3.188 3.162-4.792 7.541-4.4 12.015.356 4.065 2.384 7.865 5.563 10.425 3.353 2.699 7.467 4.128 11.681 4.128 1.258 0 2.525-.127 3.784-.386l13.464-2.771-11.989 6.863c-1.63.935-2.643 2.682-2.643 4.56 0 2.896 2.357 5.253 5.254 5.253h52.228c4.597 0 8.802-2.323 11.25-6.214.531-.844.958-1.734 1.283-2.655l7.976.268c.44.015.881.022 1.322.022 2.553 0 5.107-.249 7.609-.742 8.582-1.69 16.458-6.266 22.178-12.885l2.016-2.334c3.504-1.571 6.702-3.845 9.388-6.752 4.376-4.736 7.065-10.886 7.57-17.314.886-11.276-1.257-22.616-6.197-32.791zm-34.149-36.903 6.087.655c4.992.537 9.884 2.226 14.146 4.882 1.382.861 2.6 2.075 3.617 3.606l4.518 6.801c2.708 4.075 4.473 8.591 5.248 13.422l.284 1.771c.14.872-.36 1.728-1.187 2.036-.821.306-1.729.005-2.23-.766l-7.326-10.813c.466-1.734.249-3.614-.703-5.216l-5.546-9.332-3.438 2.043 5.546 9.333c.566.952.513 2.148-.137 3.046-.493.682-1.257 1.099-2.096 1.145-.841.053-1.645-.283-2.209-.906-.033-.036-.066-.07-.101-.104l-4.417-4.212-4.947-9.812c-.181-.358-.465-.654-.817-.85l-7.493-4.149zm1.84 30.708-4.756-3.166 3.447-4.462 7.356-2.228 3.775 3.6c.465.501.997.92 1.573 1.254l-8.237 7.19c-1.041-.745-2.092-1.478-3.158-2.188zm-16.963-20.298-4.442 4.387-5.007-3.045zm-77.441-11.311c1.725-2.626 4.107-4.785 6.889-6.245l.481-.253c4.827-2.531 10.496-2.821 15.553-.791l4.188 1.682c6.159 2.472 12.159 5.475 17.833 8.926l25.122 15.278-10.163 10.038-25.191 8.069-17.956-13.904-2.449 3.162 8.246 6.385-17.064 2.875c-3.576-6.5-6.275-13.43-8.021-20.661-1.203-4.976-.28-10.284 2.532-14.561zm10.938 44.317-3.303-5.399 19.221-3.239 3.234 2.504zm-30.456-4.936c3.014-3.584 6.938-6.308 11.349-7.876l6.316-2.247c1.672 3.925 3.621 7.734 5.859 11.393l3.01 4.921-9.929 3.18c-2.871.919-5.845 1.577-8.838 1.954l-4.662.587c-3.497.44-6.677 1.875-9.262 4.005.245-5.794 2.402-11.451 6.157-15.917zm-87.681 38.262c-1.916-5.863 1.296-12.192 7.16-14.107 2.84-.931 5.872-.695 8.536.657 2.28 1.158 4.052 3.019 5.107 5.344-.116.071-.235.135-.35.207-6.223 3.892-10.798 9.118-13.551 14.955-3.24-1.154-5.825-3.758-6.902-7.056zm12.206 35.241c-8.525-13.633-4.068-30.722 10.368-39.75 6.218-3.888 13.311-5.916 20.163-5.916 2.561 0 5.086.293 7.52.87-1.589 4.152-5.055 11.063-9.616 12.824-4.705 1.815-7.701 4.145-8.904 6.924-.785 1.812-.787 3.786-.006 5.71 1.459 3.596 5.706 4.08 8.594 3.965l-4.04 27.954c-8.566 1.905-16.568-.569-24.079-12.581zm67.608-21.389c.474.99.616 2.51.392 4.017-.602 1.932-8.961 7.63-12.108 9.774-3.146 2.145-3.925 2.703-4.344 3.262-1.077 1.434-1.158 3.344-.207 4.865l1.4 2.239c.081.129.055.23.033.279-.032.069-.071.076-.102.081l-11.15 1.744c-.244.038-.479.121-.693.245-4.305 2.493-8.478 4.731-12.529 6.211l4.146-28.687c.093-.643-.132-1.29-.603-1.736-.471-.448-1.133-.638-1.766-.512-1.841.364-6.119.56-6.847-1.236-.379-.933-.389-1.789-.03-2.616.523-1.209 2.106-3.02 6.673-4.781 6.497-2.507 10.49-11.371 12.001-15.376 2.862 1.114 5.466 2.675 7.604 4.587 2.931 2.62 16.195 14.998 17.201 16.176.414.542.717 1.02.929 1.464zm-15.462-20.622c-1.543-1.378-3.288-2.599-5.176-3.637l16.817-4.085c-.431 1.193-.754 2.438-.929 3.734-.655 4.879.679 9.699 3.612 13.493l-3.36.665c-4.586-4.313-9.98-9.29-10.964-10.17zm19.564 9.235c-3.706-3.135-5.533-7.878-4.886-12.689.854-6.355 5.894-11.354 12.256-12.155l4.662-.587c3.237-.408 6.453-1.119 9.558-2.114l63.271-20.265c.299-.096.572-.261.795-.481l19.53-19.291c.56-.553.744-1.383.469-2.121l-2.331-6.262 2.194-4.796 7.15-1.689.191.514-5.042 4.062c-.519.418-.795 1.066-.738 1.729.058.664.441 1.255 1.024 1.578l9.556 5.292 3.754 7.445-6.807 2.062c-.398.12-.749.362-1.003.691l-18.84 24.385c-16.748 8.902-48.297 25.642-50.319 26.599l-23.03 10.896c-7.051 3.335-15.457 2.235-21.414-2.803zm34.2 33.053c-4.302.883-8.73-.186-12.151-2.939-2.335-1.881-3.825-4.672-4.087-7.658-.287-3.286.891-6.503 3.232-8.826l12.143-12.044 12.818-6.064c.437-.207 2.086-1.062 4.533-2.345l5.18 8.743c-8.177 2.572-15.596 7.19-21.485 13.428l2.908 2.746c1.094-1.158 2.26-2.238 3.462-3.273.395 5.608 2.041 11.015 4.837 15.888zm15.563-3.204c-3.331-5.31-5.107-11.388-5.107-17.682v-.371c4.01-2.768 8.441-4.913 13.144-6.306l.158-.047 10.32 17.417-8.668 4.962zm49.421 12.683c-1.711 2.719-4.65 4.343-7.864 4.343h-52.228c-.691 0-1.254-.563-1.254-1.253 0-.448.242-.865.631-1.089l33.558-19.21c.465-.266.804-.707.94-1.225.137-.519.06-1.069-.213-1.53l-18.519-31.257c5.278-2.78 12.426-6.563 19.373-10.246l3.651 5.134c.988 1.389 2.015 2.743 3.045 4.095l5.911 20.322c1.857 6.385 5.042 12.204 9.467 17.296 2.377 2.734 3.928 5.098 4.485 6.835.84 2.619.482 5.457-.983 7.785zm-9.128-33.033-3.274-11.255c2.37 2.724 4.816 5.377 7.366 7.926l-3.833 4.138c-.085-.271-.18-.536-.259-.809zm29.931 28.132c-2.635.519-5.333.738-8.023.646l-7.367-.247c.05-1.508-.148-3.029-.62-4.504-.732-2.281-2.506-5.053-5.275-8.237-2.851-3.281-5.126-6.897-6.82-10.784l5.153-5.563c5.536 5.256 11.44 10.134 17.733 14.556 4.363 3.065 9.484 4.86 14.811 5.188l1.813.111c.601.037 1.199.056 1.796.056 1.473 0 2.931-.114 4.366-.333-4.852 4.614-10.975 7.812-17.567 9.111zm37.938-35.674c-.435 5.537-2.751 10.833-6.52 14.912-5.086 5.503-12.294 8.391-19.77 7.936l-1.813-.111c-4.587-.283-8.999-1.829-12.756-4.471-14.196-9.976-26.493-22.203-36.547-36.342l-3.346-4.706c10.125-5.37 19.011-10.093 19.85-10.54.25-.133.47-.318.644-.543l12.813-16.584 4.991 3.323c6.94 4.621 13.369 10.03 19.108 16.079l3.778 3.982 2.901-2.754-3.778-3.982c-4.124-4.346-8.599-8.365-13.349-12.023l10.341-9.027c.778-.239 1.5-.618 2.142-1.115l6.383 9.42c.629.971 1.5 1.691 2.485 2.142l6.637 13.671c4.628 9.537 6.636 20.164 5.806 30.733z"/></svg>